<?xml version="1.0" standalone="no"?><!DOCTYPE svg PUBLIC "-//W3C//DTD SVG 1.1//EN" "http://www.w3.org/Graphics/SVG/1.1/DTD/svg11.dtd"><svg class="icon" width="200px" height="200.00px" viewBox="0 0 1024 1024" version="1.1" xmlns="http://www.w3.org/2000/svg"><path d="M720.3 709.8c-10.6 0-19.2-8.6-19.2-19.2V582.7c0-102.5-83.4-185.9-185.9-185.9s-185.9 83.4-185.9 185.9v107.9c0 10.6-8.6 19.2-19.2 19.2s-19.2-8.6-19.2-19.2V582.7c0-123.7 100.6-224.3 224.4-224.3 123.7 0 224.3 100.6 224.3 224.3v107.9c0 10.6-8.6 19.2-19.3 19.2z" fill="#33DEB4" /><path d="M353.9 738.6V630.7c0-112.8 92.3-205.1 205.1-205.1s205.1 92.3 205.1 205.1v107.8" fill="#33DEB4" opacity=".4" /><path d="M824 852.3H206.4c-31.6 0-57.3-25.7-57.3-57.3s25.7-57.3 57.3-57.3H824c31.6 0 57.3 25.7 57.3 57.3 0.1 31.6-25.7 57.3-57.3 57.3z m-617.6-76.2c-10.4 0-18.9 8.5-18.9 18.9s8.5 18.9 18.9 18.9H824c10.4 0 18.9-8.5 18.9-18.9s-8.5-18.9-18.9-18.9H206.4zM516.3 273.1c-10.6 0-19.2-8.6-19.2-19.2V140.8c0-10.6 8.6-19.2 19.2-19.2s19.2 8.6 19.2 19.2v113.1c0.1 10.6-8.5 19.2-19.2 19.2z" fill="#808080" /><path d="M516.3 273.1c-10.6 0-19.2-8.6-19.2-19.2V140.8c0-10.6 8.6-19.2 19.2-19.2s19.2 8.6 19.2 19.2v113.1c0.1 10.6-8.5 19.2-19.2 19.2zM353.9 315.4c-6.6 0-13.1-3.4-16.7-9.6l-56.6-98c-5.3-9.2-2.2-21 7-26.3 9.1-5.3 20.9-2.2 26.3 7l56.6 98c5.3 9.2 2.2 21-7 26.3-3 1.8-6.3 2.6-9.6 2.6z" fill="#808080" /><path d="M353.9 315.4c-6.6 0-13.1-3.4-16.7-9.6l-56.6-98c-5.3-9.2-2.2-21 7-26.3 9.1-5.3 20.9-2.2 26.3 7l56.6 98c5.3 9.2 2.2 21-7 26.3-3 1.8-6.3 2.6-9.6 2.6zM234.4 433.3c-3.3 0-6.6-0.8-9.6-2.6l-98-56.5c-9.2-5.3-12.4-17.1-7-26.3 5.3-9.2 17.1-12.4 26.3-7l98 56.5c9.2 5.3 12.4 17.1 7 26.3-3.6 6.1-10.1 9.6-16.7 9.6z" fill="#808080" /><path d="M234.4 433.3c-3.3 0-6.6-0.8-9.6-2.6l-98-56.5c-9.2-5.3-12.4-17.1-7-26.3 5.3-9.2 17.1-12.4 26.3-7l98 56.5c9.2 5.3 12.4 17.1 7 26.3-3.6 6.1-10.1 9.6-16.7 9.6zM796.1 437.2c-6.6 0-13.1-3.4-16.7-9.6-5.3-9.2-2.2-21 7-26.3l98-56.6c9.1-5.3 20.9-2.2 26.3 7 5.3 9.2 2.2 21-7 26.3l-98 56.6c-3 1.8-6.4 2.6-9.6 2.6z" fill="#808080" /><path d="M796.1 437.2c-6.6 0-13.1-3.4-16.7-9.6-5.3-9.2-2.2-21 7-26.3l98-56.6c9.1-5.3 20.9-2.2 26.3 7 5.3 9.2 2.2 21-7 26.3l-98 56.6c-3 1.8-6.4 2.6-9.6 2.6zM678.2 317.7c-3.3 0-6.6-0.8-9.6-2.6-9.2-5.3-12.4-17.1-7-26.3l56.6-98c5.3-9.2 17.1-12.4 26.3-7 9.2 5.3 12.4 17.1 7 26.3l-56.6 98c-3.6 6.2-10.1 9.6-16.7 9.6z" fill="#808080" /><path d="M678.2 317.7c-3.3 0-6.6-0.8-9.6-2.6-9.2-5.3-12.4-17.1-7-26.3l56.6-98c5.3-9.2 17.1-12.4 26.3-7 9.2 5.3 12.4 17.1 7 26.3l-56.6 98c-3.6 6.2-10.1 9.6-16.7 9.6z" fill="#808080" /></svg>