<?xml version="1.0" standalone="no"?><!DOCTYPE svg PUBLIC "-//W3C//DTD SVG 1.1//EN" "http://www.w3.org/Graphics/SVG/1.1/DTD/svg11.dtd"><svg class="icon" width="200px" height="200.00px" viewBox="0 0 1024 1024" version="1.1" xmlns="http://www.w3.org/2000/svg"><path d="M742.6 855.6H281.4c-46.9 0-85.1-33.9-85.1-75.5v-408c0-41.6 38.2-75.5 85.1-75.5h23.1c10.6 0 19.2 8.6 19.2 19.2s-8.6 19.2-19.2 19.2h-23.1c-25.3 0-46.7 17-46.7 37v407.9c0 20.1 21.4 37 46.7 37h461.2c25.3 0 46.7-17 46.7-37V372.1c0-20.1-21.4-37-46.7-37h-22.2c-10.6 0-19.2-8.6-19.2-19.2s8.6-19.2 19.2-19.2h22.2c46.9 0 85.1 33.9 85.1 75.5v407.9c0 41.6-38.2 75.5-85.1 75.5z" fill="#808080" /><path d="M663 550.6H361c-10.6 0-19.2-8.6-19.2-19.2s8.6-19.2 19.2-19.2h302c10.6 0 19.2 8.6 19.2 19.2s-8.6 19.2-19.2 19.2zM663 709.8H361c-10.6 0-19.2-8.6-19.2-19.2s8.6-19.2 19.2-19.2h302c10.6 0 19.2 8.6 19.2 19.2s-8.6 19.2-19.2 19.2z" fill="#808080" /><path d="M559.7 178.5l33.4 67.8c2.3 4.7 6.8 8 12.1 8.8l74.8 10.8c13.1 1.9 18.4 18 8.9 27.3L634.7 346c-3.8 3.7-5.5 9-4.6 14.2l12.8 74.5c2.2 13.1-11.5 23-23.2 16.9l-66.8-35.2c-4.7-2.5-10.2-2.5-14.9 0l-67 35.2c-11.7 6.2-25.5-3.8-23.2-16.9l12.8-74.6c0.9-5.2-0.8-10.5-4.6-14.2l-54.2-52.8c-9.5-9.3-4.3-25.4 8.9-27.3l74.8-10.8c5.2-0.8 9.7-4 12-8.7l33.5-67.8c5.9-11.9 22.9-11.9 28.7 0z" fill="#ADF2E1" /><path d="M615.1 441.8c-3.1 0-6.1-0.7-8.9-2.2L512 390.1l-94.1 49.5c-6.4 3.4-14.3 2.9-20.2-1.5-5.9-4.3-8.9-11.6-7.6-18.8l18-104.8-76.2-74.2c-5.2-5.1-7.1-12.8-4.9-19.7 2.3-7 8.3-12 15.5-13.1l105.2-15.3 47.1-95.3c3.2-6.6 9.9-10.7 17.2-10.7 7.3 0 14 4.2 17.2 10.7l47.1 95.3 105.2 15.3c7.2 1.1 13.3 6.1 15.5 13.1 2.3 6.9 0.4 14.6-4.9 19.7l-76.2 74.2 18 104.8c1.2 7.2-1.7 14.5-7.6 18.8-3.3 2.4-7.2 3.7-11.2 3.7zM512 349.1c3.1 0 6.1 0.7 8.9 2.2l68.6 36-13.1-76.3c-1.1-6.2 1-12.6 5.5-17l55.5-54.1-76.7-11.2c-6.3-0.9-11.7-4.8-14.5-10.5L512 148.8l-34.3 69.5c-2.8 5.7-8.2 9.6-14.5 10.5L386.5 240l55.5 54.1c4.5 4.4 6.6 10.8 5.5 17l-13.1 76.4 68.6-36c2.9-1.6 5.9-2.4 9-2.4z" fill="#33DEB4" /></svg>