<svg id="图层_1" data-name="图层 1" xmlns="http://www.w3.org/2000/svg" xmlns:xlink="http://www.w3.org/1999/xlink" viewBox="0 0 676.74 342.08"><defs><style>.cls-1{fill:#fff;}.cls-2{fill:url(#未命名的渐变_7);}.cls-3{fill:url(#未命名的渐变_8);}</style><linearGradient id="未命名的渐变_7" x1="-58.93" y1="-137.06" x2="-57.93" y2="-137.06" gradientTransform="matrix(287.65, 0, 0, -287.65, 17079.58, -39373.32)" gradientUnits="userSpaceOnUse"><stop offset="0" stop-color="#fff"/><stop offset="1" stop-color="#fff" stop-opacity="0.3"/></linearGradient><linearGradient id="未命名的渐变_8" x1="-58.92" y1="-137.07" x2="-57.92" y2="-137.07" gradientTransform="matrix(289.43, 0, 0, -289.43, 17183.7, -39385.94)" gradientUnits="userSpaceOnUse"><stop offset="0" stop-color="#fff" stop-opacity="0.3"/><stop offset="1" stop-color="#fff"/></linearGradient></defs><title>未标题-1</title><g id="_编组_" data-name="&lt;编组&gt;"><path id="_路径_" data-name="&lt;路径&gt;" class="cls-1" d="M69.77,183.76a29.17,29.17,0,0,1-24.7,13.51,28.63,28.63,0,1,1,0-57.25,29.16,29.16,0,0,1,25.14,14.23l13.52-8.63A46.14,46.14,0,0,0,44.47,124c-25.41,0-46,20.27-46,45.28s20.6,45.28,46,45.28a46.14,46.14,0,0,0,39.46-22Z" transform="translate(1.54 1.87)"/><path id="_复合路径_" data-name="&lt;复合路径&gt;" class="cls-1" d="M134.59,123.26a45.58,45.58,0,1,0,45.58,45.58A45.59,45.59,0,0,0,134.59,123.26Zm0,74.38a28.8,28.8,0,1,1,28.8-28.8A28.8,28.8,0,0,1,134.59,197.64Z" transform="translate(1.54 1.87)"/><path id="_复合路径_2" data-name="&lt;复合路径&gt;" class="cls-1" d="M413,123.26a45.58,45.58,0,1,0,45.58,45.58A45.59,45.59,0,0,0,413,123.26Zm0,74.38a28.8,28.8,0,1,1,28.8-28.8A28.8,28.8,0,0,1,413,197.64Z" transform="translate(1.54 1.87)"/><path id="_路径_2" data-name="&lt;路径&gt;" class="cls-1" d="M194.66,186.12S186.1,197,183.8,200.27C197,213.77,214.41,214.43,221,214.43c30.28,0,35.55-19.09,35.55-27.65,0-31.6-50-24-50-37.85,0-10.53,20.41-12.51,36.53.33,2.63-3.29,11.52-13.49,11.52-13.49S242.71,123.59,221,123.59c-27.32,0-34.56,16.79-34.56,28,0,28.31,50.69,23.7,50.69,36.53,0,6.54-7.28,9.54-15.14,9.54C206.18,197.64,194.66,186.12,194.66,186.12Z" transform="translate(1.54 1.87)"/><polygon id="_路径_3" data-name="&lt;路径&gt;" class="cls-1" points="286.72 153.1 310.08 190.95 317.98 190.95 341.02 153.1 341.02 214.98 359.78 214.98 359.78 127.43 335.1 127.43 314.36 162.32 292.97 127.43 268.28 127.43 268.28 214.98 286.39 214.98 286.72 153.1"/><path id="_复合路径_3" data-name="&lt;复合路径&gt;" class="cls-1" d="M514.41,125.23h-36.7v86.89h10.53V181.51h26.17A28.14,28.14,0,1,0,514.41,125.23Zm17.94,28.14a18.27,18.27,0,0,1-18.27,18.27H488.25V135.11h25.84A18.27,18.27,0,0,1,532.35,153.37Z" transform="translate(1.54 1.87)"/><rect id="_路径_4" data-name="&lt;路径&gt;" class="cls-1" x="553.64" y="127.1" width="10.86" height="86.89"/><path id="_复合路径_4" data-name="&lt;复合路径&gt;" class="cls-1" d="M628.79,146.62v8.56a33.41,33.41,0,1,0,0,48.22v8.39H640V146.62H628.79Zm-22.92,55a22.38,22.38,0,1,1,22.59-22.38A22.48,22.48,0,0,1,605.87,201.67Z" transform="translate(1.54 1.87)"/><path id="_路径_5" data-name="&lt;路径&gt;" class="cls-1" d="M675.19,156.5V147H662.69V129.18H651.83v67.14c0,10.2,7.24,15.14,11.19,15.14h12.18v-9.87h-5.92c-3.29,0-6.58-1.65-6.58-5.27V156.5h12.51Z" transform="translate(1.54 1.87)"/><path id="_路径_6" data-name="&lt;路径&gt;" class="cls-2" d="M139.86,107.21a9.88,9.88,0,0,1-9-14,168,168,0,0,1,57.57-68.54,150.56,150.56,0,0,1,170.67,0,168,168,0,0,1,57.57,68.54,9.87,9.87,0,0,1-17.92,8.3c-23.87-51.57-71.76-83.6-125-83.6s-101.11,32-125,83.61A9.88,9.88,0,0,1,139.86,107.21Z" transform="translate(1.54 1.87)"/><path id="_路径_7" data-name="&lt;路径&gt;" class="cls-3" d="M273.82,340.21a151.21,151.21,0,0,1-86.2-27.11A168.18,168.18,0,0,1,130,243.16a9.87,9.87,0,0,1,18-8.07c23.23,51.86,72.6,85.37,125.79,85.37s102.65-33.57,125.86-85.52a9.87,9.87,0,1,1,18,8.05A168.21,168.21,0,0,1,360.09,313,151.21,151.21,0,0,1,273.82,340.21Z" transform="translate(1.54 1.87)"/></g></svg>