<?xml version="1.0" standalone="no"?><!DOCTYPE svg PUBLIC "-//W3C//DTD SVG 1.1//EN" "http://www.w3.org/Graphics/SVG/1.1/DTD/svg11.dtd"><svg class="icon" width="200px" height="200.00px" viewBox="0 0 1024 1024" version="1.1" xmlns="http://www.w3.org/2000/svg"><path d="M586.4 890.7h-127c-22.9 0-41.6-18.7-41.6-41.7v-46.5C301.1 758.8 223.6 648 223.6 522.3c0-165 134.3-299.3 299.3-299.3s299.3 134.3 299.3 299.3c0 125.7-77.5 236.5-194.2 280.2V849c0 23-18.6 41.7-41.6 41.7z m-63.5-629.3c-143.8 0-260.9 117-260.9 260.9 0 113.6 72.7 213.4 180.9 248.2 7.9 2.6 13.3 10 13.3 18.3V849c0 1.7 1.5 3.2 3.2 3.2h127c1.7 0 3.2-1.5 3.2-3.2v-60.2c0-8.3 5.4-15.7 13.3-18.3 108.2-34.9 180.9-134.6 180.9-248.2 0-143.8-117.1-260.9-260.9-260.9z" fill="#808080" /><path d="M522.9 628.9c-63.4 0-115-51.6-115-115s51.6-115 115-115 115 51.6 115 115-51.5 115-115 115z m0-191.6c-42.2 0-76.6 34.4-76.6 76.6s34.3 76.6 76.6 76.6c42.2 0 76.6-34.4 76.6-76.6s-34.4-76.6-76.6-76.6z" fill="#33DEB4" /><path d="M567.1 551.3m-95.8 0a95.8 95.8 0 1 0 191.6 0 95.8 95.8 0 1 0-191.6 0Z" fill="#33DEB4" opacity=".4" /><path d="M592.1 974.7H453.7c-10.6 0-19.2-8.6-19.2-19.2s8.6-19.2 19.2-19.2h138.4c10.6 0 19.2 8.6 19.2 19.2s-8.6 19.2-19.2 19.2zM522.9 166.2c-10.6 0-19.2-8.6-19.2-19.2V68.5c0-10.6 8.6-19.2 19.2-19.2s19.2 8.6 19.2 19.2V147c0.1 10.6-8.5 19.2-19.2 19.2zM809.6 289.1c-4.9 0-9.8-1.9-13.6-5.6-7.5-7.5-7.5-19.7 0-27.2l55.5-55.4c7.5-7.5 19.7-7.5 27.2 0s7.5 19.7 0 27.2l-55.5 55.4c-3.8 3.8-8.7 5.6-13.6 5.6zM238.2 289.1c-4.9 0-9.8-1.9-13.6-5.6l-55.4-55.4c-7.5-7.5-7.5-19.7 0-27.2s19.7-7.5 27.2 0l55.4 55.4c7.5 7.5 7.5 19.7 0 27.2-3.8 3.8-8.7 5.6-13.6 5.6zM136.8 548.9H58.4c-10.6 0-19.2-8.6-19.2-19.2s8.6-19.2 19.2-19.2h78.4c10.6 0 19.2 8.6 19.2 19.2s-8.6 19.2-19.2 19.2zM965.6 548.9h-78.4c-10.6 0-19.2-8.6-19.2-19.2s8.6-19.2 19.2-19.2h78.4c10.6 0 19.2 8.6 19.2 19.2s-8.6 19.2-19.2 19.2z" fill="#808080" /><path d="M522.9 707.3c-10.6 0-19.2-8.6-19.2-19.2v-78.4c0-10.6 8.6-19.2 19.2-19.2s19.2 8.6 19.2 19.2v78.4c0.1 10.6-8.5 19.2-19.2 19.2z" fill="#33DEB4" /></svg>