<?xml version="1.0" standalone="no"?><!DOCTYPE svg PUBLIC "-//W3C//DTD SVG 1.1//EN" "http://www.w3.org/Graphics/SVG/1.1/DTD/svg11.dtd"><svg class="icon" width="200px" height="200.00px" viewBox="0 0 1024 1024" version="1.1" xmlns="http://www.w3.org/2000/svg"><path d="M867.8 851.1H156.2c-7 0-13.5-3.8-16.8-10-3.4-6.1-3.2-13.6 0.6-19.5l137-217.1c3.5-5.6 9.6-9 16.2-9l124.9-0.2c10.4-1.4 19.2 8.6 19.3 19.2 0 10.6-8.6 19.2-19.2 19.3l-114.3 0.2-112.8 178.7h643.1L728.6 633.2l-126.2 0.2c-10.6 0-19.2-8.6-19.2-19.2s8.6-19.2 19.2-19.3l137.2-0.2c7.5 0.9 13.2 3.6 16.6 9.5l128.2 217.9c3.5 5.9 3.5 13.3 0.1 19.3s-9.8 9.7-16.7 9.7z" fill="#808080" /><path d="M510.2 742.6c-11.9 0-18.3-6.4-21.4-9.5-14.6-16.2-51.7-57.4-86.5-107.4-44.5-62.6-97.7-155.3-97.7-240.4C304.6 271 396.9 178 510.2 178s205.6 93 205.6 207.3c0 67-32.9 148-97.7 240.4-35.2 49.6-68.8 89.7-86.5 107.4-3.6 3.5-12 9.5-21.4 9.5z m0-526.2c-92.1 0-167.1 75.8-167.1 168.9 0 78.9 56.8 170.6 90.7 218.3 29.3 42 60.3 77.7 76.7 96.1 16.5-17.7 45.9-53.4 76.1-96.1 59.3-84.6 90.7-160.1 90.7-218.3 0-93.1-74.9-168.9-167.1-168.9z" fill="#33DEB4" /><path d="M558.8 261.4c-97.7 0-177.2 80.4-177.2 179.1 0 83.7 60.2 180.9 96.2 231.4 23.1 33.1 47 62.4 65 83.3 8.7 10.1 24.3 10 32.9-0.1 17.5-20.7 40.6-49.9 64.2-83.2 62.9-89.7 96.2-169.8 96.2-231.5-0.1-98.7-79.5-179-177.3-179z" fill="#33DEB4" opacity=".4" /><path d="M510.2 517.1c-73.3 0-132.9-60.1-132.9-133.9S437 249.3 510.2 249.3s132.9 60.1 132.9 133.9-59.6 133.9-132.9 133.9z m0-229.4c-52.1 0-94.4 42.8-94.4 95.5s42.3 95.5 94.4 95.5 94.4-42.8 94.4-95.5-42.3-95.5-94.4-95.5z" fill="#33DEB4" /></svg>