<?xml version="1.0" standalone="no"?><!DOCTYPE svg PUBLIC "-//W3C//DTD SVG 1.1//EN" "http://www.w3.org/Graphics/SVG/1.1/DTD/svg11.dtd"><svg class="icon" width="200px" height="200.00px" viewBox="0 0 1024 1024" version="1.1" xmlns="http://www.w3.org/2000/svg"><path d="M403.3 823c-3 0-6.1-0.3-9.1-1l-187.5-42.6C187.2 775 173 757 173 736.6V236c0-12.8 5.6-24.6 15.3-32.4 9.5-7.5 21.8-10.4 33.9-7.6l187.5 42.6c19.6 4.5 33.7 22.5 33.7 42.8V782c0 12.8-5.6 24.6-15.3 32.4-7.1 5.6-15.8 8.6-24.8 8.6z m-0.6-38.5c0.8 0.2 1.1 0 1.4-0.2l0.8-502.9c0-2.6-2-4.9-3.8-5.3l-187.5-42.6-2.2 503.1c0 2.6 2 4.9 3.8 5.3l187.5 42.6zM840.1 812.5c-3.1 0-6.1-0.4-9.2-1.1l-178.6-43.8c-17.5-4.3-29.8-20.1-29.8-38.4v-87.3c0-10.6 8.6-19.2 19.2-19.2s19.2 8.6 19.2 19.2v87.3L840 774l0.5-487.2L739 256.2c-10.2-3-16-13.7-13.1-23.9 3-10.2 13.7-16 23.9-13.1l101 29.6c16.6 4.9 28.1 20.5 28.1 38V773c0 12.3-5.5 23.7-15.1 31.3-6.9 5.3-15.2 8.2-23.7 8.2z" fill="#808080" /><path d="M412.7 821.8c-8.6 0-16.5-5.8-18.6-14.6-2.6-10.3 3.7-20.8 14-23.3L622 730.3l0.6-143.5c0-10.6 8.6-19.2 19.2-19.2s19.2 8.6 19.2 19.2v142.5c0 18.3-12.3 34.1-29.8 38.4l-213.8 53.6c-1.6 0.3-3.2 0.5-4.7 0.5zM422.5 291.6c-8.3 0-15.9-5.4-18.4-13.7-3-10.2 2.8-20.9 13-23.9l116.6-34.7c10.2-2.9 20.9 2.8 23.9 13s-2.8 20.9-13 23.9L428 290.8c-1.8 0.5-3.7 0.8-5.5 0.8z" fill="#808080" /><path d="M642.2 499.1h-0.4c-9-0.1-17.5-3.9-23.3-10.5-1.9-2-79.8-83.2-79.8-83.2-0.7-0.7-2-2.5-3.2-4.1-22.4-25.6-34.7-58.2-34.7-91.9 0-77.3 63.3-140.2 141-140.2 37.8 0 73.4 14.7 100 41.4 26.4 26.4 40.9 61.6 40.9 98.8 0 34.3-12.7 67.4-35.8 93.1-0.4 0.4-2.5 3.1-2.9 3.5l-79.3 83.5c-5.7 6.1-13.9 9.6-22.5 9.6z m-5.4-36l-0.1 0.1 0.1-0.1z m10.1-0.4l0.5 0.5-0.5-0.5z m-79.4-82.5c0.3 0.1 56.7 58.8 74.5 77.4l74.8-78.7c18.2-20.7 27.4-44.6 27.4-69.4 0-27-10.5-52.5-29.6-71.6-19.4-19.4-45.2-30.1-72.8-30.1-56.5 0-102.6 45.6-102.6 101.7 0 24.7 9.1 48.5 25.7 67.2 1 0.9 1.9 2.2 2.6 3.5z" fill="#33DEB4" /><path d="M673.1 237.7c-67.3 0-121.8 54.2-121.8 120.9 0 30.7 11.6 58.6 30.6 80 0.5 1 1.2 1.9 2 2.8 0 0 79.9 83.3 80.4 83.8 4.1 4.6 12.8 5.8 17.8 0.4l80-84.2c0.7-0.7 1.3-1.5 1.8-2.4 19.2-21.3 30.9-49.5 30.9-80.3 0-66.8-54.5-121-121.7-121z" fill="#33DEB4" opacity=".4" /><path d="M641.7 360.9c-27.9 0-50.5-22.6-50.5-50.5s22.6-50.5 50.5-50.5c27.8 0 50.5 22.6 50.5 50.5 0 27.8-22.6 50.5-50.5 50.5z m0-62.6c-6.6 0-12 5.4-12 12s5.4 12 12 12 12-5.4 12-12-5.3-12-12-12z" fill="#33DEB4" /></svg>