<?xml version="1.0" standalone="no"?><!DOCTYPE svg PUBLIC "-//W3C//DTD SVG 1.1//EN" "http://www.w3.org/Graphics/SVG/1.1/DTD/svg11.dtd"><svg class="icon" width="200px" height="200.00px" viewBox="0 0 1024 1024" version="1.1" xmlns="http://www.w3.org/2000/svg"><path d="M763.3 834H260.7c-67.9 0-123.2-55.3-123.2-123.2V398.3c0-67.9 55.3-123.2 123.2-123.2h502.7c67.9 0 123.2 55.3 123.2 123.2v312.5c0 67.9-55.3 123.2-123.3 123.2zM260.7 313.5c-46.7 0-84.8 38-84.8 84.8v312.5c0 46.8 38 84.8 84.8 84.8h502.7c46.7 0 84.8-38 84.8-84.8V398.3c0-46.8-38-84.8-84.8-84.8H260.7z" fill="#808080" /><path d="M657.1 308.5c-10.6 0-19.2-8.6-19.2-19.2v-40c0-11.5-9.3-20.8-20.8-20.8H406.9c-11.5 0-20.8 9.4-20.8 20.8v40c0 10.6-8.6 19.2-19.2 19.2s-19.2-8.6-19.2-19.2v-40c0-32.7 26.6-59.3 59.3-59.3h210.2c32.7 0 59.3 26.6 59.3 59.3v40c-0.1 10.6-8.7 19.2-19.4 19.2zM416.4 542.1H165c-10.6 0-19.2-8.6-19.2-19.2s8.6-19.2 19.2-19.2h251.4c10.6 0 19.2 8.6 19.2 19.2s-8.6 19.2-19.2 19.2zM855.7 542.1H604.2c-10.6 0-19.2-8.6-19.2-19.2s8.6-19.2 19.2-19.2h251.4c10.6 0 19.2 8.6 19.2 19.2 0.1 10.6-8.5 19.2-19.1 19.2z" fill="#808080" /><path d="M512 618.8c-57.5 0-104.3-46.8-104.3-104.3S454.5 410.2 512 410.2 616.3 457 616.3 514.5 569.5 618.8 512 618.8z m0-170.1c-36.3 0-65.9 29.5-65.9 65.8s29.5 65.9 65.9 65.9c36.3 0 65.8-29.6 65.8-65.9s-29.5-65.8-65.8-65.8z" fill="#33DEB4" /><path d="M542.5 554.6m-85.1 0a85.1 85.1 0 1 0 170.2 0 85.1 85.1 0 1 0-170.2 0Z" fill="#33DEB4" opacity=".4" /></svg>