<?xml version="1.0" standalone="no"?><!DOCTYPE svg PUBLIC "-//W3C//DTD SVG 1.1//EN" "http://www.w3.org/Graphics/SVG/1.1/DTD/svg11.dtd"><svg t="1552967179060" class="icon" style="" viewBox="0 0 1024 1024" version="1.1" xmlns="http://www.w3.org/2000/svg" p-id="5084" xmlns:xlink="http://www.w3.org/1999/xlink" width="200" height="200"><defs><style type="text/css"></style></defs><path d="M404.248183 781.45109v-161.699273h-161.699273c-89.292342 0-161.699273 72.406931-161.699273 161.699273s72.406931 161.699273 161.699273 161.699273c89.435439 0 161.699273-72.406931 161.699273-161.699273z m80.849637 0c0 133.938513-108.610397 242.54891-242.54891 242.54891S0 915.389603 0 781.45109s108.610397-242.54891 242.54891-242.54891H485.09782v242.54891z m134.797093 0v-161.699273h161.699274c89.292342 0 161.699273 72.406931 161.699273 161.699273s-72.406931 161.699273-161.699273 161.699273-161.699273-72.406931-161.699274-161.699273z m-80.849636 0c0 133.938513 108.610397 242.54891 242.54891 242.54891s242.54891-108.610397 242.54891-242.54891-108.610397-242.54891-242.54891-242.54891H539.045277v242.54891z m-134.797094-538.90218v161.699273h-161.699273c-89.292342 0-161.699273-72.406931-161.699273-161.699273s72.406931-161.699273 161.699273-161.699273c89.435439 0.143097 161.699273 72.406931 161.699273 161.699273z m80.849637 0C485.09782 108.610397 376.487423 0 242.54891 0S0 108.610397 0 242.54891 108.753494 485.09782 242.692007 485.09782h242.54891V242.54891h-0.143097z m134.797093 0v161.699273h161.699274c89.292342 0 161.699273-72.406931 161.699273-161.699273s-72.406931-161.699273-161.699273-161.699273c-89.292342 0.143097-161.699273 72.406931-161.699274 161.699273z m-80.849636 0C539.045277 108.610397 647.655674 0 781.594187 0s242.54891 108.610397 242.54891 242.54891S915.389603 485.09782 781.45109 485.09782H539.045277V242.54891z" fill="#515151" opacity=".8" p-id="5085"></path></svg>