<?xml version="1.0" standalone="no"?><!DOCTYPE svg PUBLIC "-//W3C//DTD SVG 1.1//EN" "http://www.w3.org/Graphics/SVG/1.1/DTD/svg11.dtd"><svg t="1552967224705" class="icon" style="" viewBox="0 0 1157 1024" version="1.1" xmlns="http://www.w3.org/2000/svg" p-id="5443" xmlns:xlink="http://www.w3.org/1999/xlink" width="225.9765625" height="200"><defs><style type="text/css"></style></defs><path d="M1019.247606 603.632952c0-21.477577-17.379881-39.422658-39.422658-39.422658-21.477577 0-39.422658 17.379881-39.422658 38.716158v313.685663c0 2.260798 0 5.228094 0.5652 7.488892 0.565199 3.532496 0.565199 12.716986-2.260798 16.249483-1.695598 2.260798-7.488892 4.662895-18.51028 4.662895H704.996743l-1.130399-220.427763c1.130399-12.151787 3.532496-50.867945-20.205878-78.138816-10.456189-12.151787-30.096868-27.270871-62.454533-27.270871h-83.36691c-32.357665 0-52.139644 14.412585-62.454533 27.270871-23.738374 27.83607-21.477577 66.552229-20.205878 78.138816l-1.412999 220.569063H238.565944c-11.021388 0-16.814682-2.260798-18.51028-4.662895-2.825997-3.532496-3.532496-11.586588-2.260797-16.249483 0.565199-2.825997 0.565199-4.662895 0.565199-7.488892v-313.685663c0-21.477577-17.379881-38.716158-39.422658-38.716158-10.456189 0-20.205878 4.097696-27.83607 11.586587-7.488892 7.488892-11.586588 17.379881-11.586587 27.83607v310.859666c-1.695598 13.847385-3.532496 48.041948 19.640679 75.878019 12.151787 15.119084 35.890161 32.922865 79.269214 32.922865h254.622327c21.477577 0 38.716158-17.379881 39.422658-38.716159l1.695598-261.546019c0-2.260798 0-4.097696-0.5652-5.793294-1.130399-6.923693 0-15.684283 1.695599-18.51028h90.290603c1.130399 2.825997 2.825997 11.586588 1.695598 18.51028-0.565199 2.260798-0.565199 4.097696-0.5652 6.358494l1.695599 261.546019c0 21.477577 17.379881 38.716158 39.422657 38.716158h254.622327c42.813854 0 66.552229-17.945081 79.269215-32.922865 23.173175-27.83607 21.477577-61.889334 19.640678-75.878018l-2.119497-311.566165z" fill="#515151" opacity=".8" p-id="5444"></path><path d="M1147.123968 531.287429L709.518338 60.758935c-8.054091-9.890989-53.835242-58.498137-121.517869-60.758935h-5.228094c-46.91155 0-91.986201 22.607976-133.669657 66.552229C354.855719 166.733821 102.49419 434.073134 30.148668 510.516352L10.507989 531.287429c-6.923693 7.488892-11.021388 17.379881-10.456188 27.83607S4.714696 579.329378 12.203587 586.39437c7.488892 6.923693 16.814682 10.456189 26.564372 10.456189 11.021388 0 20.771078-4.662895 28.401269-12.151787l18.510281-19.640679c70.649924-74.04112 325.272251-344.34773 420.225748-444.529322 25.999172-27.83607 52.139644-41.683455 77.008417-41.683456h1.695599c37.02056 1.130399 64.291431 32.357665 65.421829 33.629364l1.695598 1.695598 438.17083 471.093694c7.488892 8.054091 17.945081 12.716986 28.966469 12.716987 9.890989 0 19.07548-3.532496 26.564371-10.456189 15.684283-15.684283 16.249483-40.553056 1.695598-56.23734z" fill="#515151" opacity=".8" p-id="5445"></path></svg>