<?xml version="1.0" standalone="no"?><!DOCTYPE svg PUBLIC "-//W3C//DTD SVG 1.1//EN" "http://www.w3.org/Graphics/SVG/1.1/DTD/svg11.dtd"><svg t="1552967247564" class="icon" style="" viewBox="0 0 1024 1024" version="1.1" xmlns="http://www.w3.org/2000/svg" p-id="5983" xmlns:xlink="http://www.w3.org/1999/xlink" width="200" height="200"><defs><style type="text/css"></style></defs><path d="M600.118364 912.598782H141.925152C63.832898 912.598782 0 848.765883 0 770.673629V141.925152C0 63.832898 63.832898 0 141.925152 0h458.193212c78.092254 0 141.925152 63.832898 141.925152 141.925152v628.748477c0 77.980853-63.832898 141.925152-141.925152 141.925153z" fill="#ff9600" opacity=".3" p-id="5984" data-spm-anchor-id="a313x.7781069.0.i35" class="selected"></path><path d="M710.294169 1024H253.994778c-78.760661 0-142.59356-63.832898-142.59356-142.59356V253.994778c0-78.760661 63.832898-142.59356 142.59356-142.59356h456.299391c78.760661 0 142.59356 63.832898 142.593559 142.59356v627.411662c0 78.760661-63.832898 142.59356-142.593559 142.59356zM253.994778 168.438642c-47.234117 0.111401-85.444735 38.322019-85.556136 85.556136v627.411662c0.111401 47.234117 38.322019 85.444735 85.556136 85.556136h456.299391c47.234117-0.111401 85.444735-38.322019 85.556136-85.556136V253.994778c-0.111401-47.234117-38.322019-85.444735-85.556136-85.556136H253.994778z m199.630984 285.18712H253.994778V253.994778h199.630984v199.630984z m-142.59356-57.037424H396.588338v-85.556136h-85.556136V396.588338z m399.261967-85.556136H539.181897V253.994778h171.112272v57.037424z m0 142.59356H539.181897V396.588338h171.112272v57.037424z m0 142.593559H253.994778V539.181897h456.299391v57.037424z m0 142.59356H253.994778V681.775457h456.299391v57.037424z m0 142.593559H253.994778V824.369017h456.299391v57.037423z m228.149695 142.59356H738.812881c-15.707572 0-28.518712-12.81114-28.518712-28.518712s12.81114-28.518712 28.518712-28.518712h199.630983c15.707572 0 28.518712-12.81114 28.518712-28.518712V482.144473c0-15.707572-12.81114-28.518712-28.518712-28.518711s-28.518712-12.81114-28.518712-28.518712 12.81114-28.518712 28.518712-28.518712c47.234117 0.111401 85.444735 38.322019 85.556136 85.556135v456.299391c-0.111401 47.234117-38.322019 85.444735-85.556136 85.556136z" fill="#666666" p-id="5985"></path></svg>