<?xml version="1.0" standalone="no"?><!DOCTYPE svg PUBLIC "-//W3C//DTD SVG 1.1//EN" "http://www.w3.org/Graphics/SVG/1.1/DTD/svg11.dtd"><svg t="1552967243006" class="icon" style="" viewBox="0 0 1024 1024" version="1.1" xmlns="http://www.w3.org/2000/svg" p-id="5804" xmlns:xlink="http://www.w3.org/1999/xlink" width="200" height="200"><defs><style type="text/css"></style></defs><path d="M671.753996 1023.625137H159.941428c-88.342648 0-159.941428-71.59878-159.941428-159.941427V159.941428C0 71.59878 71.59878 0 159.941428 0h511.812568c88.342648 0 159.941428 71.59878 159.941428 159.941428v703.742282c0 88.342648-71.59878 159.941428-159.941428 159.941427zM159.941428 63.976571c-52.980598 0.124954-95.839902 42.984259-95.964857 95.964857v703.742282c0.124954 52.980598 42.984259 95.839902 95.964857 95.964856h511.812568c52.980598-0.124954 95.839902-42.984259 95.964857-95.964856V159.941428c-0.124954-52.980598-42.984259-95.839902-95.964857-95.964857H159.941428z m223.917998 319.882855H159.941428V159.941428h223.917998v223.917998z m-159.941427-63.976571H319.882855v-95.964856h-95.964856V319.882855z m447.835997-95.964856H479.824283V159.941428h191.929713v63.976571z m0 159.941427H479.824283V319.882855h191.929713v63.976571z m0 159.941428H159.941428V479.824283h511.812568v63.976571z m0 159.941428H159.941428V639.765711h511.812568v63.976571z m0 159.941428H159.941428V799.707138h511.812568v63.976572z m255.906285 159.941427H703.742282c-17.618548 0-31.988286-14.369738-31.988286-31.988285s14.369738-31.988286 31.988286-31.988286h223.917999c17.618548 0 31.988286-14.369738 31.988285-31.988285V415.847712c0-17.618548-14.369738-31.988286-31.988285-31.988286s-31.988286-14.369738-31.988286-31.988285 14.369738-31.988286 31.988286-31.988286c52.980598 0.124954 95.839902 42.984259 95.964856 95.964857v511.812569c-0.124954 52.980598-42.984259 95.839902-95.964856 95.964856z" fill="#515151" opacity=".8" p-id="5805"></path></svg>