<?xml version="1.0" standalone="no"?><!DOCTYPE svg PUBLIC "-//W3C//DTD SVG 1.1//EN" "http://www.w3.org/Graphics/SVG/1.1/DTD/svg11.dtd"><svg t="1552967157561" class="icon" style="" viewBox="0 0 1095 1024" version="1.1" xmlns="http://www.w3.org/2000/svg" p-id="4902" xmlns:xlink="http://www.w3.org/1999/xlink" width="213.8671875" height="200"><defs><style type="text/css"></style></defs><path d="M524.689404 179.863574m-179.863574 0a179.863574 179.863574 0 1 0 359.727149 0 179.863574 179.863574 0 1 0-359.727149 0Z" fill="#ff9600" opacity=".3" p-id="4903" data-spm-anchor-id="a313x.7781069.0.i25" class="selected"></path><path d="M833.658936 733.424284m-179.863574 0a179.863574 179.863574 0 1 0 359.727148 0 179.863574 179.863574 0 1 0-359.727148 0Z" fill="#ff9600" opacity=".3" p-id="4904" data-spm-anchor-id="a313x.7781069.0.i26" class="selected"></path><path d="M179.863574 733.424284m-179.863574 0a179.863574 179.863574 0 1 0 359.727149 0 179.863574 179.863574 0 1 0-359.727149 0Z" fill="#ff9600" opacity=".3" p-id="4905" data-spm-anchor-id="a313x.7781069.0.i24" class="selected"></path><path d="M915.383356 623.294225c-96.742156 0-179.630741 78.34834-179.630741 179.630741 0 96.742156 78.34834 175.090496 175.090496 179.630741h4.656662c96.742156 0 179.630741-78.34834 179.630741-179.630741-0.116417-96.742156-78.34834-179.630741-179.747158-179.630741m0 294.883128c-64.49477 0-115.135971-50.641201-115.135971-115.135971s50.641201-115.135971 115.135971-115.13597 115.135971 50.641201 115.135971 115.13597c0 64.378354-50.641201 115.135971-115.135971 115.135971m-654.261028-294.883128C164.380173 623.294225 81.491587 701.642565 81.491587 802.924966c0 96.742156 78.34834 175.090496 175.090496 179.630741h4.656662c96.742156 0 179.630741-78.34834 179.630741-179.630741-4.656662-96.742156-83.005002-179.630741-179.747158-179.630741m0 294.883128c-64.49477 0-115.135971-50.641201-115.135971-115.135971s50.641201-115.135971 115.135971-115.13597 115.135971 50.641201 115.135971 115.13597c-4.540246 64.378354-55.181446 115.135971-115.135971 115.135971m340.984084-488.367439c101.398818 0 184.287403-78.34834 184.287403-179.630742 0-96.742156-78.34834-179.630741-179.630741-179.630741-101.398818 4.656662-179.630741 82.888586-179.630741 184.287403-0.116417 96.625739 78.231924 174.974079 174.974079 174.97408m0-290.226467c64.49477 0 115.135971 50.641201 115.135971 115.135971s-50.641201 115.135971-115.135971 115.135971-115.135971-50.641201-115.135971-115.135971c4.540246-64.49477 55.181446-115.135971 115.135971-115.135971M265.77899 581.849932c13.85357-92.20191 69.151432-170.433834 138.186449-221.191451-4.656662-13.85357-13.85357-32.247385-18.393816-50.6412-96.742156 59.838108-161.236926 161.236926-175.090495 276.372896 18.393815-4.656662 32.247385-4.656662 50.6412-4.656662h4.656662m658.801274 0.116417c18.393815 0 36.904047 4.656662 55.297862 9.196907-13.85357-115.135971-73.691678-211.878126-165.893588-271.832651-4.656662 18.393815-13.85357 36.904047-23.050477 50.641201 69.151432 50.757617 115.252387 124.449295 133.646203 211.994543M740.29286 936.571169c-46.100955 23.050477-92.20191 32.247385-147.383356 32.247385-55.297863 0-105.939063-13.85357-152.040018-36.904047-9.196908 13.85357-23.050477 27.590723-36.904047 41.444292 55.297863 32.247385 124.449295 50.641201 193.484311 50.641201 69.151432 0 128.989541-18.393815 184.287403-46.100955-18.393815-13.737153-27.590723-27.474307-41.444293-41.327876" fill="#666666" p-id="4906"></path></svg>