<?xml version="1.0" standalone="no"?><!DOCTYPE svg PUBLIC "-//W3C//DTD SVG 1.1//EN" "http://www.w3.org/Graphics/SVG/1.1/DTD/svg11.dtd"><svg t="1552967183718" class="icon" style="" viewBox="0 0 1025 1024" version="1.1" xmlns="http://www.w3.org/2000/svg" p-id="5263" xmlns:xlink="http://www.w3.org/1999/xlink" width="200.1953125" height="200"><defs><style type="text/css"></style></defs><path d="M453.770972 452.29682l-245.647428 2.546263s-244.575317-28.142913-202.628975-281.429132c0 0 43.822536-201.020809 268.965842-170.197618 0 0 146.075121 22.112289 176.898312 188.289491 0 0 4.690486 30.153121 2.010208 91.129433l0.402041 169.661563zM506.572438 454.173014l-2.948305-245.781442S531.365005-36.183746 784.651224 5.360555c0 0 201.020809 43.420495 170.599659 268.5638 0 0-21.844261 146.075121-188.021463 177.300354 0 0-30.153121 4.690486-91.129433 2.144222l-169.527549 0.804083zM452.028792 503.222091l2.814291 245.647429s-27.874885 244.575317-281.161104 202.897003c0 0-201.020809-43.554509-170.465646-268.697815 0 0 21.978275-146.075121 188.021463-177.166339 0 0 30.153121-4.690486 91.129433-2.144222l169.661563-0.536056z" fill="#ff9600" opacity=".3" p-id="5264" data-spm-anchor-id="a313x.7781069.0.i29" class="selected"></path><path d="M445.060071 796.846486v-151.435676h-151.435676c-83.624656 0-151.435676 67.81102-151.435676 151.435676s67.81102 151.435676 151.435676 151.435676c83.75867 0 151.435676-67.81102 151.435676-151.435676z m75.717838 0c0 125.436985-101.716529 227.153514-227.153514 227.153514S66.470881 922.283471 66.470881 796.846486s101.716529-227.153514 227.153514-227.153514h227.153514v227.153514z m126.241068 0v-151.435676h151.435676c83.624656 0 151.435676 67.81102 151.435675 151.435676s-67.81102 151.435676-151.435675 151.435676-151.435676-67.81102-151.435676-151.435676z m-75.717838 0c0 125.436985 101.716529 227.153514 227.153514 227.153514s227.153514-101.716529 227.153513-227.153514-101.716529-227.153514-227.153513-227.153514H571.301139v227.153514zM445.060071 292.150242v151.435676h-151.435676c-83.624656 0-151.435676-67.81102-151.435676-151.435676s67.81102-151.435676 151.435676-151.435676c83.75867 0.134014 151.435676 67.81102 151.435676 151.435676z m75.717838 0c0-125.436985-101.716529-227.153514-227.153514-227.153514S66.470881 166.713257 66.470881 292.150242s101.850543 227.153514 227.287528 227.153514h227.153514V292.150242h-0.134014z m126.241068 0v151.435676h151.435676c83.624656 0 151.435676-67.81102 151.435675-151.435676s-67.81102-151.435676-151.435675-151.435676c-83.624656 0.134014-151.435676 67.81102-151.435676 151.435676z m-75.717838 0c0-125.436985 101.716529-227.153514 227.153514-227.153514S1025.608166 166.713257 1025.608166 292.150242s-101.850543 227.153514-227.287527 227.153514H571.301139V292.150242z" fill="#666666" p-id="5265"></path></svg>