<?xml version="1.0" standalone="no"?><!DOCTYPE svg PUBLIC "-//W3C//DTD SVG 1.1//EN" "http://www.w3.org/Graphics/SVG/1.1/DTD/svg11.dtd"><svg t="1552967149830" class="icon" style="" viewBox="0 0 1088 1024" version="1.1" xmlns="http://www.w3.org/2000/svg" p-id="4723" xmlns:xlink="http://www.w3.org/1999/xlink" width="212.5" height="200"><defs><style type="text/css"></style></defs><path d="M895.593651 593.644933c-103.900366 0-192.9221 84.145543-192.9221 192.9221 0 103.900366 84.145543 188.04591 188.045909 192.9221h5.001221c103.900366 0 192.9221-84.145543 192.9221-192.9221-0.125031-103.900366-84.145543-192.9221-193.04713-192.9221m0 316.70232c-69.266911 0-123.655189-54.388278-123.655189-123.65519s54.388278-123.655189 123.655189-123.655189 123.655189 54.388278 123.655189 123.655189c0 69.14188-54.388278 123.655189-123.655189 123.65519m-702.671551-316.70232C89.021734 593.644933 0 677.790476 0 786.567033c0 103.900366 84.145543 188.04591 188.04591 192.9221h5.001221c103.900366 0 192.9221-84.145543 192.9221-192.9221-5.001221-103.900366-89.146764-192.9221-193.047131-192.9221m0 316.70232c-69.266911 0-123.655189-54.388278-123.655189-123.65519s54.388278-123.655189 123.655189-123.655189 123.655189 54.388278 123.655189 123.655189c-4.87619 69.14188-59.264469 123.655189-123.655189 123.65519m366.214408-524.503053c108.901587 0 197.923321-84.145543 197.923321-192.9221C757.059829 89.021734 672.914286 0 564.137729 0c-108.901587 5.001221-192.9221 89.021734-192.9221 197.923321-0.125031 103.775336 84.020513 187.920879 187.920879 187.920879m0-311.701099c69.266911 0 123.655189 54.388278 123.655189 123.65519s-54.388278 123.655189-123.655189 123.655189-123.655189-54.388278-123.655189-123.655189c4.87619-69.266911 59.264469-123.655189 123.655189-123.65519M197.923321 549.134066c14.878632-99.024176 74.268132-183.044689 148.411233-237.557998-5.001221-14.878632-14.878632-34.633455-19.754823-54.388278-103.900366 64.26569-173.167277 173.167277-188.045909 296.822466 19.754823-5.001221 34.633455-5.001221 54.388278-5.001221h5.001221m707.547741 0.125031c19.754823 0 39.634676 5.001221 59.3895 9.877411-14.878632-123.655189-79.144322-227.555556-178.168499-291.946276-5.001221 19.754823-14.878632 39.634676-24.756043 54.388279 74.268132 54.513309 123.78022 133.657631 143.535042 227.680586M707.547741 930.102076c-49.512088 24.756044-99.024176 34.633455-158.288645 34.633455-59.389499 0-113.777778-14.878632-163.289865-39.634676-9.877411 14.878632-24.756044 29.632234-39.634677 44.510867 59.389499 34.633455 133.657631 54.388278 207.800733 54.388278 74.268132 0 138.533822-19.754823 197.923321-49.512088-19.754823-14.753602-29.632234-29.507204-44.510867-44.385836" fill="#515151" opacity=".8" p-id="4724"></path></svg>