<?xml version="1.0" standalone="no"?><!DOCTYPE svg PUBLIC "-//W3C//DTD SVG 1.1//EN" "http://www.w3.org/Graphics/SVG/1.1/DTD/svg11.dtd"><svg t="1552967229164" class="icon" style="" viewBox="0 0 1105 1024" version="1.1" xmlns="http://www.w3.org/2000/svg" p-id="5623" xmlns:xlink="http://www.w3.org/1999/xlink" width="215.8203125" height="200"><defs><style type="text/css"></style></defs><path d="M973.429001 622.529863c0-20.512088-16.598597-37.650477-37.650477-37.650476-20.512088 0-37.650477 16.598597-37.650477 36.975737v299.584438c0 2.159167 0 4.993074 0.539792 7.152241 0.539792 3.373699 0.539792 12.145315-2.159167 15.519014-1.619375 2.159167-7.152241 4.453282-17.678181 4.453282H673.304771l-1.079584-210.518795c1.079584-11.605523 3.373699-48.58126-19.297556-74.626213-9.986148-11.605523-28.743912-26.044953-59.646992-26.044954h-79.619287c-30.903079 0-49.795792 13.76469-59.646992 26.044954-22.671255 26.584745-20.512088 63.560482-19.297556 74.626213l-1.34948 210.653743H227.841604c-10.52594 0-16.058805-2.159167-17.678181-4.453283-2.698959-3.373699-3.373699-11.065731-2.159167-15.519013 0.539792-2.698959 0.539792-4.453282 0.539792-7.152241v-299.584438c0-20.512088-16.598597-36.975737-37.650477-36.975737-9.986148 0-19.297556 3.91349-26.584745 11.065731-7.152241 7.152241-11.065731 16.598597-11.065732 26.584745v296.88548c-1.619375 13.224899-3.373699 45.882301 18.757765 72.467046 11.605523 14.43943 34.276778 31.442871 75.705797 31.442871h243.176197c20.512088 0 36.975737-16.598597 37.650477-36.975737l1.619375-249.788646c0-2.159167 0-3.91349-0.539792-5.532866-1.079584-6.612449 0-14.979222 1.619376-17.678181h86.231737c1.079584 2.698959 2.698959 11.065731 1.619375 17.678181-0.539792 2.159167-0.539792 3.91349-0.539792 6.072658l1.619375 249.788646c0 20.512088 16.598597 36.975737 37.650477 36.975737h243.176197c40.889227 0 63.560482-17.138389 75.705797-31.442871 22.131463-26.584745 20.512088-59.1072 18.757765-72.467047l-2.024219-297.560219z" fill="#666666" p-id="5624"></path><path d="M1095.556891 553.436515l-417.933786-449.376657c-7.692033-9.446356-51.415167-55.868449-116.055233-58.027616h-4.993074c-44.802718 0-87.851112 21.591671-127.660756 63.560482-90.010279 95.678093-331.027309 350.999605-400.120657 424.006444L10.035621 553.436515c-6.612449 7.152241-10.52594 16.598597-9.986148 26.584746s4.453282 19.297556 11.605523 26.044953c7.152241 6.612449 16.058805 9.986148 25.370214 9.986148 10.52594 0 19.837348-4.453282 27.124537-11.605523L81.827927 585.689074c67.473973-70.712723 310.65017-328.868142 401.335189-424.546235 24.830422-26.584745 49.795792-39.809644 73.54663-39.809644h1.619375c35.356362 1.079584 61.401315 30.903079 62.480899 32.117611l1.619375 1.619376 418.473578 449.916449c7.152241 7.692033 17.138389 12.145315 27.664329 12.145315 9.446356 0 18.217973-3.373699 25.370213-9.986148 14.979222-14.979222 15.519014-38.73006 1.619376-53.709283z" fill="#666666" p-id="5625"></path><path d="M25.419686 409.851902l361.660493-382.442476s53.979178-61.671211 121.588099 0l355.992679 382.442476 3.778542 405.653523s3.103803 79.214444-86.366685 86.906476h-255.051616s-32.657403-3.373699-34.546674-36.975736L490.585253 612.678663s2.833907-12.145315-0.809688-20.916931H403.543828s-4.048438 7.692033-1.619375 17.678181l-1.214531 253.297293s1.079584 35.356362-37.515529 39.134904H107.737933s-71.522411-2.024219-82.318247-75.705797V409.851902z" fill="#ff9600" opacity=".3" p-id="5626" data-spm-anchor-id="a313x.7781069.0.i32" class="selected"></path></svg>