<?xml version="1.0" standalone="no"?><!DOCTYPE svg PUBLIC "-//W3C//DTD SVG 1.1//EN" "http://www.w3.org/Graphics/SVG/1.1/DTD/svg11.dtd"><svg class="icon" width="200px" height="200.00px" viewBox="0 0 1024 1024" version="1.1" xmlns="http://www.w3.org/2000/svg"><path d="M512 877.4c-201.5 0-365.4-163.9-365.4-365.4S310.5 146.6 512 146.6 877.4 310.5 877.4 512 713.5 877.4 512 877.4z m0-692.3c-180.3 0-326.9 146.7-326.9 326.9S331.7 838.9 512 838.9 838.9 692.3 838.9 512 692.3 185.1 512 185.1z" fill="#808080" /><path d="M512 877.4c-10.6 0-19.2-8.6-19.2-19.2V167.5c0-10.6 8.6-19.2 19.2-19.2s19.2 8.6 19.2 19.2v690.7c0 10.6-8.6 19.2-19.2 19.2z" fill="#808080" /><path d="M857.3 532H166.6c-10.6 0-19.2-8.6-19.2-19.2s8.6-19.2 19.2-19.2h690.7c10.6 0 19.2 8.6 19.2 19.2 0.1 10.6-8.5 19.2-19.2 19.2z" fill="#808080" /><path d="M512 744.1C384 744.1 279.9 640 279.9 512S384 279.9 512 279.9 744.1 384 744.1 512 640 744.1 512 744.1z m0-425.8c-106.8 0-193.7 86.9-193.7 193.7S405.2 705.7 512 705.7 705.7 618.8 705.7 512 618.8 318.3 512 318.3z" fill="#33DEB4" /><path d="M659.1 659.1m-65.1 0a65.1 65.1 0 1 0 130.2 0 65.1 65.1 0 1 0-130.2 0Z" fill="#33DEB4" /><path d="M414.5 316.8m-65.1 0a65.1 65.1 0 1 0 130.2 0 65.1 65.1 0 1 0-130.2 0Z" fill="#33DEB4" /><path d="M569.3 586.6m-212.9 0a212.9 212.9 0 1 0 425.8 0 212.9 212.9 0 1 0-425.8 0Z" fill="#33DEB4" opacity=".4" /></svg>