<?xml version="1.0" standalone="no"?><!DOCTYPE svg PUBLIC "-//W3C//DTD SVG 1.1//EN" "http://www.w3.org/Graphics/SVG/1.1/DTD/svg11.dtd"><svg class="icon" width="200px" height="200.00px" viewBox="0 0 1024 1024" version="1.1" xmlns="http://www.w3.org/2000/svg"><path d="M418.8 470.6H258c-31.8 0-57.7-25.9-57.7-57.7V252.1c0-31.8 25.9-57.7 57.7-57.7h160.8c31.8 0 57.7 25.9 57.7 57.7v160.8c0 31.8-25.9 57.7-57.7 57.7zM258 232.9c-10.6 0-19.2 8.6-19.2 19.2v160.8c0 10.6 8.6 19.2 19.2 19.2h160.8c10.6 0 19.2-8.6 19.2-19.2V252.1c0-10.6-8.6-19.2-19.2-19.2H258zM758.4 470.6H597.6c-31.8 0-57.7-25.9-57.7-57.7V252.1c0-31.8 25.9-57.7 57.7-57.7h160.8c31.8 0 57.7 25.9 57.7 57.7v160.8c0 31.8-25.9 57.7-57.7 57.7zM597.6 232.9c-10.6 0-19.2 8.6-19.2 19.2v160.8c0 10.6 8.6 19.2 19.2 19.2h160.8c10.6 0 19.2-8.6 19.2-19.2V252.1c0-10.6-8.6-19.2-19.2-19.2H597.6zM418.8 809.8H258c-31.8 0-57.7-25.9-57.7-57.7V591.3c0-31.8 25.9-57.7 57.7-57.7h160.8c31.8 0 57.7 25.9 57.7 57.7v160.8c0 31.8-25.9 57.7-57.7 57.7zM258 572.1c-10.6 0-19.2 8.6-19.2 19.2v160.8c0 10.6 8.6 19.2 19.2 19.2h160.8c10.6 0 19.2-8.6 19.2-19.2V591.3c0-10.6-8.6-19.2-19.2-19.2H258z" fill="#808080" /><path d="M678 809.8c-76.1 0-138.1-62-138.1-138.1 0-76.2 62-138.1 138.1-138.1s138.1 62 138.1 138.1-62 138.1-138.1 138.1z m0-237.7c-54.9 0-99.6 44.7-99.6 99.6 0 54.9 44.7 99.6 99.6 99.6s99.6-44.7 99.6-99.6-44.7-99.6-99.6-99.6z" fill="#33DEB4" /><path d="M714.8 809.8c-63.6 0-115.2-51.7-115.2-115.2 0-63.6 51.7-115.2 115.2-115.2 63.6 0 115.2 51.7 115.2 115.2s-51.7 115.2-115.2 115.2z" fill="#33DEB4" opacity=".4" /></svg>