<?xml version="1.0" standalone="no"?><!DOCTYPE svg PUBLIC "-//W3C//DTD SVG 1.1//EN" "http://www.w3.org/Graphics/SVG/1.1/DTD/svg11.dtd"><svg class="icon" width="200px" height="200.00px" viewBox="0 0 1024 1024" version="1.1" xmlns="http://www.w3.org/2000/svg"><path d="M628.1 864.1c-6.4 0-12.4-3.3-15.9-8.9-3.9-6.3-94.5-156.1-15.3-299.4C673.7 417 887 309.2 896 304.7c5-2.5 10.9-2.6 16-0.3 5.1 2.3 8.9 6.7 10.4 12.2 2.4 8.9 58.1 220.5-19.6 360.8-78 141-262.8 184.4-270.7 186.2-1.2 0.4-2.6 0.5-4 0.5z m263.6-514.6C836.4 380.1 687.3 469.7 629.6 574c-56.9 102.9-10.4 213.7 7.8 249.7 42.5-12.5 174.4-58.6 232.8-164.2 56.4-101.9 33.3-252.8 21.5-310z" fill="#33DEB4" /><path d="M663.7 888.7s-62.2-177.7 12.7-313 258.5-177 258.5-177 62.2 177.7-12.7 313-258.5 177-258.5 177z" fill="#33DEB4" opacity=".4" /><path d="M628.9 864.1c-4.7 0-9.5-1.7-13.3-5.2-7.9-7.3-8.4-19.6-1-27.6 189.1-204.4 263.6-478.2 264.3-480.9 2.8-10.4 13.6-16.3 23.8-13.8 10.4 2.8 16.6 13.5 13.8 23.8-3.1 11.6-77.6 285.7-273.4 497.3-3.7 4.3-8.9 6.4-14.2 6.4z" fill="#33DEB4" /><path d="M469.4 886.2h-0.7C167 875.3 86.1 653.3 85.3 651.1c-71.7-226.3 13.9-486.8 17.6-497.8 2.5-7.5 9.6-12.6 17.5-12.7h0.1c7.9 0 15 5 17.6 12.5 27 76.7 124.5 143.3 210.6 202.1 52.2 35.6 101.5 69.3 131.4 102.6 157.7 175.8 6.5 417.4 4.9 419.8-3.3 5.3-9.3 8.6-15.6 8.6zM125.5 210.4c-20.9 83.7-55.6 268.5-4.9 428.9 2.7 7.5 72.1 194.5 338.3 209.1 24-43.1 115.9-229.2-6.6-365.7-26.9-30-74.4-62.4-124.7-96.7-74.7-51.1-157.8-107.8-202.1-175.6z" fill="#808080" /><path d="M469.4 886.1c-10 0-18.2-7.9-18.6-18-0.1-1.3-7.2-137.3-165.5-277.6C117 441.4 107.9 217.2 107.6 207.7c-0.3-10.3 7.7-18.9 18-19.2 10.3-1.9 18.9 7.7 19.2 18 0.1 2.2 9.1 217.9 165.1 356.2C481.2 714.4 487.8 860.8 488 867c0.3 10.2-7.7 18.8-18 19.2-0.2-0.1-0.4-0.1-0.6-0.1z" fill="#808080" /></svg>