<?xml version="1.0" standalone="no"?><!DOCTYPE svg PUBLIC "-//W3C//DTD SVG 1.1//EN" "http://www.w3.org/Graphics/SVG/1.1/DTD/svg11.dtd"><svg class="icon" width="200px" height="200.00px" viewBox="0 0 1024 1024" version="1.1" xmlns="http://www.w3.org/2000/svg"><path d="M458.8 810.4C282.5 810.4 139 666.9 139 490.5c0-176.3 143.5-319.8 319.8-319.8 99.6 0 191.7 45.1 252.8 123.9 6.5 8.4 5 20.5-3.4 27s-20.5 5-27-3.4c-53.7-69.3-134.8-109-222.4-109-155.2 0-281.4 126.2-281.4 281.4S303.6 772 458.8 772c5.5 0 10.9-0.2 16.4-0.5 10.8-0.9 19.7 7.5 20.3 18.1s-7.5 19.7-18.1 20.3c-6.1 0.3-12.3 0.5-18.6 0.5z" fill="#808080" /><path d="M468.8 515.9h-180c-10.6 0-19.2-8.6-19.2-19.2s8.6-19.2 19.2-19.2h160.7V331.3c0-10.6 8.6-19.2 19.2-19.2s19.2 8.6 19.2 19.2v165.3c0.2 10.7-8.4 19.3-19.1 19.3z" fill="#808080" /><path d="M843.7 824.5H632.9c-16.2 0-29.4-13.2-29.4-29.4V454.8c0-16.2 13.2-29.4 29.4-29.4h210.8c16.2 0 29.4 13.2 29.4 29.4v340.3c0 16.2-13.2 29.4-29.4 29.4z" fill="#33DEB4" opacity=".4" /><path d="M791 808.7H598.4c-31.8 0-57.7-25.9-57.7-57.7V428.8c0-31.8 25.9-57.7 57.7-57.7H791c31.8 0 57.7 25.9 57.7 57.7V751c0 31.8-25.8 57.7-57.7 57.7zM598.4 409.6c-10.6 0-19.2 8.6-19.2 19.2V751c0 10.6 8.6 19.2 19.2 19.2H791c10.6 0 19.2-8.6 19.2-19.2V428.8c0-10.6-8.6-19.2-19.2-19.2H598.4z" fill="#33DEB4" /></svg>