<?xml version="1.0" standalone="no"?><!DOCTYPE svg PUBLIC "-//W3C//DTD SVG 1.1//EN" "http://www.w3.org/Graphics/SVG/1.1/DTD/svg11.dtd"><svg class="icon" width="200px" height="200.00px" viewBox="0 0 1024 1024" version="1.1" xmlns="http://www.w3.org/2000/svg"><path d="M853.7 288.4l-28.9-28.9c-19.6-19.6-51.6-19.6-71.2 0l-19 18.8-326.2 325.8c-0.4 0.4-0.7 0.9-0.8 1.4l-25.7 113.7c-1.6 7.2 4.7 13.7 12 12.2 33.9-7.2 112-24 114.8-26.8l345-345c19.6-19.6 19.6-51.6 0-71.2z" fill="#33DEB4" opacity=".4" /><path d="M342.9 713.3c-5.1 0-10-2-13.7-5.7-4.6-4.7-6.5-11.3-5.1-17.7L353.5 560c0.8-3.5 2.6-6.8 5.2-9.4l345.7-345.3c27.1-27.2 71.3-27.2 98.4 0l28.9 28.9c27.1 27.1 27.1 71.3 0 98.4l-345 345c-4.9 4.9-7.6 7.6-139.9 35.3-1.3 0.2-2.6 0.4-3.9 0.4z m46.8-139.5L368.2 669c42.3-9.1 82.5-18.1 94.1-21.5l342.1-342.1c12.1-12.1 12.1-31.9 0-44l-28.9-28.9c-12.1-12.1-31.9-12.1-44 0L389.7 573.8z m82 90.9h0.4-0.4z" fill="#33DEB4" /><path d="M799 352.5c-4.9 0-9.8-1.9-13.6-5.6l-97.8-97.8c-7.5-7.5-7.5-19.7 0-27.2s19.7-7.5 27.2 0l97.8 97.8c7.5 7.5 7.5 19.7 0 27.2-3.8 3.7-8.7 5.6-13.6 5.6z" fill="#33DEB4" /><path d="M472.9 678.6c-4.9 0-9.8-1.9-13.6-5.6l-97.8-97.8c-7.5-7.5-7.5-19.7 0-27.2s19.7-7.5 27.2 0l97.8 97.8c7.5 7.5 7.5 19.7 0 27.2-3.8 3.7-8.7 5.6-13.6 5.6z" fill="#33DEB4" /><path d="M721.6 847.3H254.2c-47 0-85.2-38.2-85.2-85.2v-484c0-47 38.2-85.2 85.2-85.2h295.6c10.6 0 19.2 8.6 19.2 19.2s-8.6 19.2-19.2 19.2H254.2c-25.8 0-46.8 21-46.8 46.8V762c0 25.8 21 46.7 46.8 46.7h467.4c25.8 0 46.8-21 46.8-46.7V517.3c0-10.6 8.6-19.2 19.2-19.2s19.2 8.6 19.2 19.2V762c0 47.1-38.2 85.3-85.2 85.3z" fill="#808080" /></svg>