<?xml version="1.0" standalone="no"?><!DOCTYPE svg PUBLIC "-//W3C//DTD SVG 1.1//EN" "http://www.w3.org/Graphics/SVG/1.1/DTD/svg11.dtd"><svg class="icon" width="200px" height="200.00px" viewBox="0 0 1024 1024" version="1.1" xmlns="http://www.w3.org/2000/svg"><path d="M768.3 864.6s-0.1 0 0 0L266 864c-23.7 0-46.1-8.1-63.1-22.7-17.9-15.3-27.8-35.9-27.7-57.9l0.5-444.2c0-22 9.9-42.6 27.9-57.9 17.1-14.5 39.4-22.5 63-22.5h56.2c10.6 0 19.2 8.6 19.2 19.2s-8.6 19.2-19.2 19.2h-56.1c-14.9 0.2-28.1 4.7-38.2 13.3-9.3 7.9-14.3 18-14.4 28.6l-0.5 444.2c0 10.6 5.1 20.8 14.3 28.7 10.1 8.7 23.6 13.4 38.1 13.4l502.2 0.6h0.1c28.5 0 52.5-19.2 52.5-42l0.5-444.2c0-10.6-5.1-20.8-14.3-28.7-10.1-8.6-23.7-13.4-38.2-13.4l-71.1-0.6c-10.6-0.1-19.2-8.8-19.1-19.4 0.1-10.6 8.7-19.1 19.2-19.1h0.2l70.9 0.6c23.5 0 45.9 8.1 63 22.7 17.9 15.3 27.8 35.9 27.7 57.9l-0.5 444.2c0.1 44.6-40.7 80.6-90.8 80.6z" fill="#808080" /><path d="M661 252.7c-9.3 0-16.8-7.8-16.3-17.1 0.1-1.3 0.1-2.5 0.1-3.8 0.1-46.3-37.4-83.8-83.7-83.9s-83.8 37.4-83.9 83.7c0 1.3 0 2.6 0.1 3.8 0.5 9.3-7 17.1-16.3 17.1l-45.9-0.1c-9.1 0-16.5 7.4-16.5 16.5l-0.1 113.6c0 9.1 7.4 16.5 16.5 16.5l291.6 0.4c9.1 0 16.5-7.4 16.5-16.5l0.2-113.6c0-9.1-7.4-16.5-16.5-16.5l-45.8-0.1z" fill="#33DEB4" opacity=".4" /><path d="M476.1 726.3c-5.7 0-11.3-2.5-15.1-7.3L352.6 581.4c-6.6-8.3-5.1-20.4 3.2-27 8.4-6.5 20.5-5.1 27 3.2l96.8 122.8 225.9-169.8c8.5-6.3 20.5-4.6 26.9 3.8 6.4 8.5 4.7 20.5-3.8 26.9l-241 181c-3.4 2.8-7.4 4-11.5 4z" fill="#808080" /><path d="M679.7 385.3l-324.6-0.4c-10.6 0-19.2-8.6-19.2-19.2l0.2-146.6c0-10.6 8.6-19.2 19.2-19.2l59.3 0.1v-1.7c0.1-56.8 46.3-102.9 103-102.9h0.1c27.5 0 53.4 10.8 72.8 30.3s30.1 45.4 30.1 72.8v1.7l59.3 0.1c5.1 0 10 2 13.6 5.7 3.6 3.6 5.6 8.5 5.6 13.6l-0.2 146.6c0 5.1-2 10-5.7 13.6-3.5 3.5-8.4 5.5-13.5 5.5z m-305.3-38.8l286.1 0.4 0.1-108.1-62.3-0.1c-6 0-11.6-2.8-15.2-7.5-3.6-4.7-4.9-10.8-3.4-16.6 1.6-6.2 2.4-11.3 2.4-16.1 0-17.3-6.7-33.5-18.8-45.7-12.2-12.2-28.4-18.9-45.6-18.9h-0.1c-35.6 0-64.5 28.9-64.5 64.4 0 4.8 0.7 10 2.3 16.1 1.5 5.8 0.2 11.9-3.4 16.6-3.6 4.7-9.3 7.4-15.2 7.4l-62.3-0.1-0.1 108.2z" fill="#33DEB4" /></svg>