<?xml version="1.0" standalone="no"?><!DOCTYPE svg PUBLIC "-//W3C//DTD SVG 1.1//EN" "http://www.w3.org/Graphics/SVG/1.1/DTD/svg11.dtd"><svg class="icon" width="200px" height="200.00px" viewBox="0 0 1024 1024" version="1.1" xmlns="http://www.w3.org/2000/svg"><path d="M834.3 412.9L442.9 804.3c-2 2-4.5 3.3-7.3 3.8L262 837.5c-8.6 1.5-16.3-5.5-15.7-14.2L259 631.8c0.2-3.3 1.6-6.3 3.9-8.6l390.8-390.8c31.7-31.7 83.6-31.7 115.4 0l65.2 65.2c31.7 31.7 31.7 83.6 0 115.3z" fill="#33DEB4" opacity=".4" /><path d="M171.5 816.2c-4.9 0-9.8-1.9-13.6-5.6-7.5-7.5-7.5-19.7 0-27.2l14.6-14.6c7.5-7.5 19.7-7.5 27.2 0s7.5 19.7 0 27.2l-14.6 14.6c-3.8 3.7-8.7 5.6-13.6 5.6zM378.5 765.3c-9.7 0-18.1-7.4-19.1-17.2l-6.9-67.1-63.2 6.6c-5.6 0.6-11.1-1.3-15.2-5.1s-6.3-9.3-6-14.9l3.2-67.8-68.2-3.8c-10.6-0.6-18.7-9.7-18.1-20.2 0.6-10.6 9.5-19 20.2-18.1l87.2 4.8c10.6 0.6 18.6 9.5 18.2 20.1l-3 64.5 60.1-6.2c5.1-0.6 10.1 1 14.1 4.2s6.5 7.9 7 13l8.9 86.2c1.1 10.6-6.6 20-17.1 21.1-0.8-0.1-1.4-0.1-2.1-0.1zM749.7 382c-4.9 0-9.8-1.9-13.6-5.6L576.4 216.6c-7.5-7.5-7.5-19.7 0-27.2s19.7-7.5 27.2 0l159.8 159.8c7.5 7.5 7.5 19.7 0 27.2-3.8 3.7-8.7 5.6-13.7 5.6z" fill="#808080" /><path d="M347.7 896.6H202.4c-10.6 0-19.2-8.6-19.2-19.2s8.6-19.2 19.2-19.2h145.2c10.6 0 19.2 8.6 19.2 19.2 0.1 10.6-8.5 19.2-19.1 19.2zM852.5 896.6H435.9c-10.6 0-19.2-8.6-19.2-19.2s8.6-19.2 19.2-19.2h416.6c10.6 0 19.2 8.6 19.2 19.2 0.1 10.6-8.5 19.2-19.2 19.2z" fill="#33DEB4" /><path d="M187.7 803.3c-4.7 0-9.3-1.7-12.9-5-4.4-3.9-6.7-9.7-6.3-15.5l14-213.6c0.3-4.7 2.3-9.1 5.6-12.4L592 152.9c16.5-16.5 38.4-25.5 61.8-25.5s45.3 9.1 61.7 25.5l84.3 84.2c34 34.1 34 89.5 0 123.5l-403.9 404c-2.8 2.8-6.4 4.7-10.4 5.4L191 803c-1.1 0.2-2.2 0.3-3.3 0.3z m32.7-224.4L208.5 761 373 733.1l399.6-399.6c19-19 19-50.1 0-69.1l-84.3-84.2c-9.2-9.2-21.4-14.2-34.6-14.3-13.1 0-25.4 5.1-34.6 14.3L220.4 578.9zM382.3 751h0.4-0.4z" fill="#808080" /></svg>