<?xml version="1.0" standalone="no"?><!DOCTYPE svg PUBLIC "-//W3C//DTD SVG 1.1//EN" "http://www.w3.org/Graphics/SVG/1.1/DTD/svg11.dtd"><svg class="icon" width="200px" height="200.00px" viewBox="0 0 1024 1024" version="1.1" xmlns="http://www.w3.org/2000/svg"><path d="M486.2 947.5c-176.7 0-320.5-144.6-320.5-322.3 0-173.1 294-484.9 306.5-498.1 3.6-3.8 8.7-6 14-6 5.3 0 10.3 2.2 14 6 12.5 13.2 306.5 325 306.5 498.1 0 177.7-143.7 322.3-320.5 322.3z m0-778.9c-58.7 64.4-282 318.7-282 456.5 0 156.5 126.5 283.8 282 283.8s282-127.3 282-283.8c0.1-137.8-223.3-392.1-282-456.5zM794.8 368.4c-56.1 0-101.8-45.9-101.8-102.2 0-51 73.1-130.6 87.8-146.1 3.6-3.8 8.7-6 14-6 5.3 0 10.3 2.2 14 6 14.6 15.5 87.8 95.1 87.8 146.1 0 56.4-45.7 102.2-101.8 102.2z m0-206.4c-29.8 34.3-63.3 81.5-63.3 104.2 0 35.2 28.4 63.8 63.3 63.8s63.3-28.6 63.3-63.8c0-22.7-33.5-69.9-63.3-104.2z" fill="#808080" /><path d="M485.4 862.5c-121.7 0-220.8-99-220.8-220.8 0-32.7 14.2-75 43.3-129.4 9.7-18.1 30.3-27.1 50-22.5 22.6 5.6 49.7 19.5 81 35.6l27.9 14.2c44.6 22.3 57.9 29 115.5 19.4 16.8-2.8 31.5-9.9 42.3-15.8 11.4-6.2 24.9-7.2 37-2.9 11.9 4.3 21.5 13.4 26.2 25.1 12.3 30.1 18.2 55.1 18.2 76.2 0.2 121.9-98.8 220.9-220.6 220.9zM347.5 527c-2.3 0-4.4 1.3-5.6 3.4-32.1 59.8-38.8 93.5-38.8 111.3 0 100.5 81.8 182.3 182.3 182.3s182.3-81.8 182.3-182.3c0-15.9-5.2-36.6-15.4-61.7-0.8-2-2.4-3-3.5-3.4s-3.2-0.8-5.7 0.5c-12.5 6.8-31.6 16.2-54.4 19.9-69.7 11.6-92.9 0.1-139-23l-28.3-14.4c-29.1-15-54.3-27.9-72.5-32.5-0.5 0-1-0.1-1.4-0.1z" fill="#33DEB4" /><path d="M396.6 554.7c-11.3-2.8-23 2.6-28.5 12.9-24.1 44.9-41 88-41 120.4 0 111.3 90.2 201.5 201.5 201.5S730.1 799.3 730.1 688c0-19.7-6.4-43.4-16.8-69-5.8-14.2-22.7-19.9-36.2-12.5-13.7 7.5-29.9 14.8-48.3 17.9-63.6 10.6-82 1.4-127.3-21.2-42.4-21.4-78.4-42-104.9-48.5z" fill="#33DEB4" opacity=".4" /></svg>