<?xml version="1.0" standalone="no"?><!DOCTYPE svg PUBLIC "-//W3C//DTD SVG 1.1//EN" "http://www.w3.org/Graphics/SVG/1.1/DTD/svg11.dtd"><svg class="icon" width="200px" height="200.00px" viewBox="0 0 1024 1024" version="1.1" xmlns="http://www.w3.org/2000/svg"><path d="M924.8 828.4H214.2c-10.6 0-19.2-8.6-19.2-19.2V243.3c0-10.6 8.6-19.2 19.2-19.2s19.2 8.6 19.2 19.2v546.6h691.3c10.6 0 19.2 8.6 19.2 19.2s-8.5 19.3-19.1 19.3z" fill="#808080" /><path d="M425.2 742.1H320.7c-10.6 0-19.2-8.6-19.2-19.2V379.1c0-10.6 8.6-19.2 19.2-19.2h104.5c10.6 0 19.2 8.6 19.2 19.2v343.8c0.1 10.6-8.5 19.2-19.2 19.2zM340 703.6h66V398.3h-66v305.3z" fill="#808080" /><path d="M575.8 290.6h75.3c8.1 0 14.6 6.5 14.6 14.6v442.2c0 8.1-6.5 14.6-14.6 14.6h-75.3c-8.1 0-14.6-6.5-14.6-14.6V305.2c0-8.1 6.5-14.6 14.6-14.6z" fill="#33DEB4" opacity=".4" /><path d="M628.8 742.1H524.2c-10.6 0-19.2-8.6-19.2-19.2V251.5c0-10.6 8.6-19.2 19.2-19.2h104.5c10.6 0 19.2 8.6 19.2 19.2v471.3c0.1 10.7-8.5 19.3-19.1 19.3z m-85.3-38.5h66.1V270.7h-66.1v432.9z" fill="#33DEB4" /><path d="M832.3 742.1H727.8c-10.6 0-19.2-8.6-19.2-19.2V457.2c0-10.6 8.6-19.2 19.2-19.2h104.5c10.6 0 19.2 8.6 19.2 19.2v265.6c0 10.7-8.6 19.3-19.2 19.3zM747 703.6h66.1V476.4H747v227.2z" fill="#808080" /><path d="M279.7 276.7c-4.9 0-9.8-1.9-13.6-5.6l-50-50.1-48.7 48.7c-7.5 7.5-19.7 7.5-27.2 0s-7.5-19.7 0-27.2l62.3-62.3c3.6-3.6 8.5-5.6 13.6-5.6s10 2 13.6 5.6l63.6 63.7c7.5 7.5 7.5 19.7 0 27.2-3.7 3.7-8.7 5.6-13.6 5.6z" fill="#808080" /></svg>