<?xml version="1.0" standalone="no"?><!DOCTYPE svg PUBLIC "-//W3C//DTD SVG 1.1//EN" "http://www.w3.org/Graphics/SVG/1.1/DTD/svg11.dtd"><svg class="icon" width="200px" height="200.00px" viewBox="0 0 1024 1024" version="1.1" xmlns="http://www.w3.org/2000/svg"><path d="M512.4 891.5C310.9 891.5 147 727.6 147 526.1s164-365.4 365.4-365.4 365.4 163.9 365.4 365.4-163.9 365.4-365.4 365.4z m0-692.3c-180.3 0-326.9 146.7-326.9 326.9S332.2 853 512.4 853s326.9-146.7 326.9-326.9-146.6-326.9-326.9-326.9z" fill="#808080" /><path d="M669.5 702.4c-4.9 0-9.8-1.9-13.6-5.6L341.8 382.6c-7.5-7.5-7.5-19.7 0-27.2s19.7-7.5 27.2 0l314.1 314.1c7.5 7.5 7.5 19.7 0 27.2-3.8 3.8-8.7 5.7-13.6 5.7z" fill="#33DEB4" /><path d="M355.4 702.4c-4.9 0-9.8-1.9-13.6-5.6-7.5-7.5-7.5-19.7 0-27.2l314.1-314.1c7.5-7.5 19.7-7.5 27.2 0s7.5 19.7 0 27.2L369 696.8c-3.8 3.7-8.7 5.6-13.6 5.6z" fill="#33DEB4" /><path d="M594.5 539.5l143.4-143.4c7.5-7.5 7.5-19.7 0-27.2s-19.7-7.5-27.2 0L567.3 512.3 423.8 368.8c-7.5-7.5-19.7-7.5-27.2 0s-7.5 19.7 0 27.2l143.5 143.5L396.6 683c-7.5 7.5-7.5 19.7 0 27.2 3.8 3.7 8.7 5.6 13.6 5.6s9.8-1.9 13.6-5.6l143.5-143.5 143.4 143.5c3.8 3.7 8.7 5.6 13.6 5.6s9.8-1.9 13.6-5.7c7.5-7.5 7.5-19.7 0-27.2L594.5 539.5z" fill="#33DEB4" opacity=".4" /></svg>