<?xml version="1.0" standalone="no"?><!DOCTYPE svg PUBLIC "-//W3C//DTD SVG 1.1//EN" "http://www.w3.org/Graphics/SVG/1.1/DTD/svg11.dtd"><svg class="icon" width="200px" height="200.00px" viewBox="0 0 1024 1024" version="1.1" xmlns="http://www.w3.org/2000/svg"><path d="M786.4 828.5H237.6c-43.3 0-78.6-38.8-78.6-86.6V421.6c0-6.7 4.8-15.4 10.5-18.9 11.5-7.3 95.3-62 95.3-62l21 32.2s-64.2 42-88.3 57.6v311.4c0 26.6 18 48.2 40.1 48.2h548.8c21.7 0 40.1-22 40.1-48.2V434.2l-91.1-55.7c-9.1-5.5-11.9-17.4-6.4-26.4s17.3-11.9 26.4-6.4L855.8 407c5.7 3.5 9.2 9.7 9.2 16.4v318.5c0 47.8-35.2 86.6-78.6 86.6z" fill="#808080" /><path d="M330.2 522.5c-5.2-0.1-9.5-4.3-9.5-9.6V262.7c0-17.5 16.7-31.9 37.1-31.9h380.1c20.4 0 37.1 14.3 37.1 31.9v255.9c0 5.3-4.4 9.7-9.7 9.6l-435.1-5.7z" fill="#33DEB4" opacity=".4" /><path d="M739.1 509.1c-10.6 0-19.2-8.6-19.2-19.2V224.2c0-6-7.3-12.6-17.8-12.6H322c-10.5 0-17.8 6.7-17.8 12.6v259.7c0 10.6-8.6 19.2-19.2 19.2s-19.2-8.6-19.2-19.2V224.2c0-28.2 25.3-51.1 56.3-51.1H702c31 0 56.3 22.9 56.3 51.1v265.6c0 10.7-8.6 19.3-19.2 19.3z" fill="#33DEB4" /><path d="M497.9 686.6c-4.2 0-8.3-1.3-11.8-4L166.9 436.3c-8.4-6.5-10-18.6-3.5-27s18.5-10 27-3.5l308 237.7L830 410.6c8.7-6.1 20.7-4 26.8 4.7s4 20.7-4.7 26.8L509 683.1c-3.3 2.4-7.2 3.5-11.1 3.5z" fill="#808080" /><path d="M622.9 330.8H401.1c-10.6 0-19.2-8.6-19.2-19.2s8.6-19.2 19.2-19.2h221.8c10.6 0 19.2 8.6 19.2 19.2s-8.6 19.2-19.2 19.2z" fill="#33DEB4" /><path d="M622.9 427.2H401.1c-10.6 0-19.2-8.6-19.2-19.2s8.6-19.2 19.2-19.2h221.8c10.6 0 19.2 8.6 19.2 19.2s-8.6 19.2-19.2 19.2z" fill="#33DEB4" /></svg>