<?xml version="1.0" standalone="no"?><!DOCTYPE svg PUBLIC "-//W3C//DTD SVG 1.1//EN" "http://www.w3.org/Graphics/SVG/1.1/DTD/svg11.dtd"><svg class="icon" width="200px" height="200.00px" viewBox="0 0 1024 1024" version="1.1" xmlns="http://www.w3.org/2000/svg"><path d="M512.3 857.4c-190.9 0-346.2-155.3-346.2-346.2S321.4 165 512.3 165s346.2 155.3 346.2 346.2-155.3 346.2-346.2 346.2z m0-653.9c-169.7 0-307.7 138-307.7 307.7s138 307.7 307.7 307.7S820 680.9 820 511.2 682 203.5 512.3 203.5z" fill="#808080" /><path d="M489 443.1v241.7c0 12.6 13.9 20.2 24.5 13.5l208-130.6c10.4-6.5 9.9-21.9-1-27.7l-208-111c-10.6-5.7-23.5 2-23.5 14.1z" fill="#33DEB4" opacity=".4" /><path d="M420.5 679.1c-3.2 0-6.4-0.8-9.3-2.4-6.1-3.4-9.9-9.8-9.9-16.8V362.6c0-6.8 3.5-13 9.3-16.5s13-3.6 18.9-0.5l255.9 136.6c6 3.2 9.9 9.5 10.2 16.3 0.2 6.8-3.2 13.3-9 17L430.7 676.1c-3.1 2-6.6 3-10.2 3z m19.2-284.4v230.4L638 500.6 439.7 394.7z" fill="#33DEB4" /></svg>